# xmcd
#
# Track frame offsets:
#	150
#	9668
#	17305
#	23597
#	30580
#	35767
#	43453
#	51783
#	56591
#	62339
#	71474
#	77075
#	84970
#	97448
#
# Disc length: 1404 seconds
#
# Revision: 0
# Processed by: cddbd v1.5.2PL0 Copyright (c) Steve Scherf et al.
# Submitted via: EasyCDDAExtractor 10.0.3.1
#
DISCID=ac057a0e
DTITLE=TAXus - Demo Album
DYEAR=2007
DGENRE=Country
TTITLE0=Chattahoochee
TTITLE1=Against The Grain
TTITLE2=There Goes My Heart
TTITLE3=It Must Be Love
TTITLE4=Should Have Asked Her Faster
TTITLE5=Unbelievable
TTITLE6=Mountain Music
TTITLE7=Sold
TTITLE8=Jesus And Mama
TTITLE9=Dixieland Delight
TTITLE10=Hello Trouble
TTITLE11=Texas Tattoo
TTITLE12=Long Time Gone
TTITLE13=Southbound Train
EXTD=
EXTT0=
EXTT1=
EXTT2=
EXTT3=
EXTT4=
EXTT5=
EXTT6=
EXTT7=
EXTT8=
EXTT9=
EXTT10=
EXTT11=
EXTT12=
EXTT13=
PLAYORDER=
